<svg xmlns="http://www.w3.org/2000/svg" width="54.012" height="54" viewBox="0 0 54.012 54">
  <path id="instagram-brands" d="M26.937,44.98A13.845,13.845,0,1,0,40.782,58.825,13.823,13.823,0,0,0,26.937,44.98Zm0,22.846a9,9,0,1,1,9-9,9.017,9.017,0,0,1-9,9ZM44.578,44.414a3.229,3.229,0,1,1-3.229-3.229A3.222,3.222,0,0,1,44.578,44.414Zm9.17,3.277c-.2-4.326-1.193-8.158-4.362-11.315S42.4,32.232,38.071,32.015c-4.458-.253-17.821-.253-22.28,0-4.314.2-8.145,1.193-11.315,4.35S.332,43.353.115,47.679c-.253,4.458-.253,17.821,0,22.28.2,4.326,1.193,8.158,4.362,11.315s6.989,4.145,11.315,4.362c4.458.253,17.821.253,22.28,0,4.326-.2,8.158-1.193,11.315-4.362s4.145-6.989,4.362-11.315C54,65.5,54,52.15,53.747,47.691Zm-5.76,27.051a9.113,9.113,0,0,1-5.133,5.133C39.3,81.285,30.865,80.96,26.937,80.96s-12.375.313-15.917-1.084a9.113,9.113,0,0,1-5.133-5.133C4.477,71.188,4.8,62.753,4.8,58.825S4.489,46.45,5.887,42.908a9.113,9.113,0,0,1,5.133-5.133c3.555-1.41,11.989-1.084,15.917-1.084s12.375-.313,15.917,1.084a9.113,9.113,0,0,1,5.133,5.133c1.41,3.555,1.084,11.989,1.084,15.917S49.4,71.2,47.988,74.742Z" transform="translate(0.075 -31.825)" fill="#fff"/>
</svg>
